<?xml version="1.0" standalone="no"?>
<!DOCTYPE svg PUBLIC "-//W3C//DTD SVG 20010904//EN"
 "http://www.w3.org/TR/2001/REC-SVG-20010904/DTD/svg10.dtd">
<svg version="1.0" xmlns="http://www.w3.org/2000/svg"
 width="256.000000pt" height="256.000000pt" viewBox="0 0 256.000000 256.000000"
 preserveAspectRatio="xMidYMid meet">
<metadata>
Created by potrace 1.11, written by Peter Selinger 2001-2013
</metadata>
<g transform="translate(0.000000,256.000000) scale(0.100000,-0.100000)"
fill="#000000" stroke="none">
<path d="M1292 1803 c-662 -333 -1199 -609 -1195 -613 4 -4 181 -69 392 -144
330 -117 387 -134 400 -122 9 7 237 199 506 426 270 227 503 425 519 439 16
14 25 19 21 11 -5 -8 -178 -217 -384 -465 -433 -518 -405 -484 -399 -490 7 -7
919 -287 923 -283 3 3 445 1833 445 1843 0 3 -6 5 -12 4 -7 -1 -554 -273
-1216 -606z"/>
<path d="M1160 402 c0 -143 -3 -267 -6 -276 -3 -9 -2 -16 2 -16 9 0 287 414
292 434 1 6 -58 33 -135 61 -75 28 -140 52 -145 53 -4 2 -8 -113 -8 -256z"/>
</g>
</svg>
